<svg width="9" height="11" viewBox="0 0 9 11" fill="none" xmlns="http://www.w3.org/2000/svg">
<path d="M6.27072 5.22162L5.88461 4.92534C5.79283 4.86802 5.73903 4.76121 5.73587 4.62772C5.72954 4.48198 5.7865 4.31927 5.89094 4.18316L6.27072 3.68822C6.59987 3.25927 6.7233 2.89855 6.61886 2.66769C6.51758 2.43926 6.20426 2.38233 5.7422 2.50614L2.43493 3.39232V3.11054C2.43493 2.9762 2.32733 2.89363 2.19757 2.9284C2.06781 2.96317 1.96021 3.10341 1.96021 3.23774V9.29924C1.96021 9.43358 2.06781 9.51615 2.19757 9.48138C2.32733 9.44661 2.43493 9.30638 2.43493 9.17204V7.57312L5.7422 6.68694C6.19793 6.56482 6.50492 6.3384 6.60936 6.05157C6.7138 5.76475 6.59354 5.4726 6.27072 5.22162Z" fill="white"/>
</svg>
