<svg width="8" height="11" viewBox="0 0 8 11" fill="none" xmlns="http://www.w3.org/2000/svg">
<path d="M4.1419 2.43189C2.39807 2.89915 0.977051 4.75105 0.977051 6.5564C0.977051 8.36174 2.39807 9.45213 4.1419 8.98487C5.88573 8.51761 7.30674 6.66571 7.30674 4.86036C7.30674 3.05502 5.88573 1.96463 4.1419 2.43189ZM5.5186 6.5092C5.4743 6.59971 5.39518 6.6635 5.31289 6.68555C5.27175 6.69657 5.2306 6.69777 5.19262 6.68173L4.21152 6.33847C3.96783 6.25305 3.78743 5.97046 3.78743 5.67885V4.33549C3.78743 4.20115 3.89504 4.06092 4.0248 4.02615C4.15456 3.99138 4.26216 4.07395 4.26216 4.20829V5.55165C4.26216 5.6696 4.35711 5.81781 4.45522 5.8505L5.43632 6.19377C5.55025 6.23204 5.58823 6.37259 5.5186 6.5092Z" fill="#D0D5DD"/>
</svg>
